<?xml version="1.0" encoding="utf-8"?>
<!-- Generator: Adobe Illustrator 24.0.0, SVG Export Plug-In . SVG Version: 6.00 Build 0)  -->
<svg version="1.1" id="Designed" xmlns="http://www.w3.org/2000/svg" xmlns:xlink="http://www.w3.org/1999/xlink" x="0px" y="0px"
	 viewBox="0 0 450 110" style="enable-background:new 0 0 450 110;" xml:space="preserve">
<style type="text/css">
	.st0{fill:#FFFFFF;}
</style>
<title>designed-logo-bw</title>
<path class="st0" d="M63.3,22.3c-2.7-2.9-6-5.2-9.6-6.9c-3.8-1.7-7.9-2.6-12.1-2.6H15v64h26.7c8.2,0.1,16.1-3.3,21.7-9.4
	c2.7-3,4.8-6.4,6.2-10.2c3-8,3-16.8,0-24.8C68.2,28.7,66.1,25.3,63.3,22.3z M57.7,53.2c-0.9,2.5-2.4,4.9-4.2,6.9
	c-1.8,2-4.1,3.5-6.6,4.6c-2.8,1.1-5.8,1.7-8.8,1.6h-16c3.2-1.4,5.2-4.5,5.2-8V22.6h10.8c3.1-0.1,6.1,0.5,8.9,1.7
	c2.5,1.1,4.8,2.7,6.7,4.7c1.8,2,3.3,4.4,4.2,7c1,2.7,1.4,5.6,1.4,8.5C59.3,47.5,58.7,50.4,57.7,53.2z"/>
<path class="st0" d="M121,35.3c-2.4-2.2-5.1-3.9-8.1-5.1c-3-1.2-6.3-1.8-9.6-1.8c-3.4,0-6.7,0.7-9.8,2c-3,1.3-5.7,3.1-8,5.3
	c-2.3,2.3-4.1,4.9-5.4,7.9c-2.6,6.2-2.6,13.2,0,19.4c1.3,3,3.1,5.6,5.4,7.9c2.3,2.3,5,4.1,8,5.3c3.2,1.3,6.6,2,10,2
	c3.4,0,6.8-0.5,10-1.5c3.5-1.2,6.7-2.9,9.6-5.2l-2.2-2.2c-2.8-2.7-6.9-3.6-10.5-2.3h-0.1c-2.1,0.7-4.3,1.1-6.4,1
	c-1.6,0-3.3-0.2-4.8-0.8c-1.4-0.5-2.7-1.2-3.9-2.1c-1.1-0.9-2.1-2-2.9-3.2c-0.8-1.2-1.4-2.5-1.8-3.9h37.8c0.1-0.9,0.2-1.7,0.3-2.5
	s0.1-1.6,0.1-2.4C128.7,46.3,125.9,39.9,121,35.3z M90.4,48.5c0.8-2.9,2.6-5.4,4.9-7.2c2.3-1.8,5.1-2.8,7.9-2.7
	c2.9,0,5.8,0.9,8.1,2.7c2.4,1.8,4.1,4.4,5,7.2H90.4z"/>
<path class="st0" d="M166.3,54.1c-1.4-1.3-3-2.4-4.8-3.2c-1.8-0.9-3.8-1.7-5.7-2.3c-2.5-0.7-4.9-1.6-7.2-2.8c-1.7-0.9-2.5-2-2.5-3.3
	c0-0.7,0.2-1.4,0.6-1.9c0.4-0.6,1-1.1,1.7-1.4c0.7-0.4,1.4-0.6,2.2-0.8c0.7-0.2,1.5-0.3,2.2-0.3c2,0,4,0.5,5.7,1.5h0.1
	c3.1,1.9,7.1,1.4,9.7-1.2l1.9-1.9c-4.3-5.3-10.9-8.4-17.7-8.2c-2.3,0-4.5,0.3-6.6,1c-2.1,0.6-4.1,1.6-5.9,2.8
	c-1.7,1.2-3.1,2.8-4.2,4.6c-1.1,1.9-1.6,4-1.6,6.2c0,1.9,0.4,3.8,1.2,5.5c0.8,1.6,1.9,3,3.3,4.2c1.4,1.3,3,2.3,4.7,3.1
	c1.7,0.8,3.5,1.5,5.4,2.1c2.5,0.7,5,1.6,7.4,2.8c1.8,1,2.6,2.1,2.6,3.6c0,1.3-0.7,2.5-1.8,3.1c-1.4,0.7-3,1.1-4.6,1
	c-2.1,0-4.2-0.5-6-1.5h-0.1c-3.4-1.9-7.6-1.3-10.4,1.4l-1.6,1.6c2.1,2.8,4.8,5,8,6.4c3.2,1.4,6.6,2,10,2c2.2,0,4.4-0.3,6.5-0.9
	c2.1-0.6,4.1-1.5,5.9-2.8c1.7-1.2,3.2-2.8,4.3-4.6c1.1-1.9,1.7-4.1,1.6-6.3c0-1.8-0.4-3.6-1.2-5.3C168.8,56.7,167.7,55.3,166.3,54.1
	z"/>
<path class="st0" d="M184.2,11.5c-3.5,0-6.3,2.8-6.3,6.3s2.8,6.3,6.3,6.3c3.5,0,6.3-2.8,6.3-6.3v0C190.5,14.3,187.6,11.5,184.2,11.5
	z"/>
<path class="st0" d="M178.2,68.6c0,4.6,3.7,8.2,8.2,8.2h3.7V29.5h-11.9V68.6z"/>
<path class="st0" d="M287.5,33c-1.7-1.6-3.7-2.8-5.9-3.5c-2.2-0.8-4.6-1.2-6.9-1.1c-1.1,0-2.3,0.1-3.4,0.3c-1.2,0.2-2.3,0.5-3.4,0.9
	c-1.1,0.4-2.2,0.9-3.2,1.5c-1,0.5-1.8,1.2-2.6,2l0-3.6h-11.8v35.5c0,6.5,5.3,11.8,11.8,11.8c0,0,0,0,0,0V42.4c1.4-1.3,3-2.3,4.8-3
	c1.7-0.6,3.5-0.9,5.4-0.9c1.2,0,2.4,0.2,3.5,0.6c1.1,0.4,2.1,1,3,1.9c0.9,0.9,1.6,2,2.1,3.2c0.5,1.4,0.8,2.9,0.8,4.5v16.5
	c0,6.5,5.3,11.8,11.8,11.8c0,0,0,0,0,0V48c0.1-3.1-0.5-6.1-1.6-8.9C290.8,36.8,289.4,34.7,287.5,33z"/>
<path class="st0" d="M343.5,35.3c-2.4-2.2-5.1-3.9-8.1-5.1c-3-1.2-6.3-1.8-9.6-1.8c-3.4,0-6.7,0.7-9.8,2c-3,1.3-5.7,3.1-8,5.3
	c-4.7,4.6-7.4,11-7.4,17.6c0,3.3,0.7,6.6,2,9.7c1.3,2.9,3.1,5.6,5.4,7.9c4.8,4.7,11.3,7.3,18,7.3c3.4,0,6.7-0.5,10-1.5
	c3.5-1.2,6.7-2.9,9.6-5.2l-2.2-2.2c-2.8-2.7-6.9-3.6-10.5-2.3h-0.1c-2.1,0.7-4.3,1.1-6.5,1.1c-1.6,0-3.3-0.2-4.8-0.8
	c-1.4-0.5-2.7-1.2-3.9-2.1c-1.1-0.9-2.1-2-2.9-3.2c-0.8-1.2-1.4-2.5-1.8-3.9h37.8c0.1-0.9,0.2-1.7,0.3-2.5s0.1-1.6,0.1-2.4
	C351.2,46.3,348.5,39.8,343.5,35.3L343.5,35.3z M312.9,48.5c0.8-2.9,2.6-5.4,4.9-7.2c2.3-1.8,5.1-2.8,8-2.7c2.9,0,5.8,0.9,8.1,2.7
	c2.4,1.8,4.1,4.4,5,7.2H312.9z"/>
<path class="st0" d="M390.5,16.9v14.4c-1.5-1.1-3.2-1.8-4.9-2.3c-1.9-0.5-3.9-0.8-5.9-0.8c-2.9,0-5.8,0.7-8.4,1.9
	c-2.7,1.3-5.2,3.1-7.3,5.3c-2.2,2.3-3.9,5-5.1,7.9c-1.3,3.1-2,6.5-1.9,9.9c0,3.2,0.6,6.5,1.7,9.5c1.1,2.9,2.7,5.6,4.7,7.9
	c2,2.3,4.5,4.1,7.2,5.4c2.9,1.4,6,2,9.2,2c1.9,0,3.9-0.3,5.7-0.9c1.8-0.6,3.5-1.5,5-2.7c0,1.4,1.1,2.5,2.5,2.4h9.6v-68h-3.9
	c-4.4,0-8,3.5-8,8C390.4,16.8,390.4,16.9,390.5,16.9z M390.5,64.2c-3.8,3.5-9.3,4.5-14,2.5c-1.6-0.7-3-1.7-4.1-3
	c-1.2-1.3-2.1-2.9-2.7-4.6c-0.7-1.9-1-3.9-1-5.8c0-2,0.3-4.1,1-6c0.6-1.7,1.6-3.3,2.8-4.6c1.2-1.3,2.6-2.3,4.2-3
	c1.7-0.7,3.5-1,5.4-1c0.7,0,1.4,0.1,2,0.2c0.8,0.1,1.5,0.3,2.3,0.6c0.8,0.2,1.5,0.5,2.2,0.9c0.7,0.3,1.3,0.7,1.9,1.1L390.5,64.2z"/>
<path class="st0" d="M409.5,11.1h4.1v10.6h2.4V11.1h4.1V8.9h-10.5V11.1z"/>
<polygon class="st0" points="432.3,8.9 428.3,14.4 424.3,8.9 421.5,8.9 421.5,21.7 423.9,21.7 423.9,12.4 428,18 428.5,18 
	432.6,12.4 432.6,21.7 435,21.7 435,8.9 "/>
<path class="st0" d="M219.8,28.3c-2.7,0-5.4,0.5-7.9,1.5c-2.4,0.9-4.7,2.3-6.6,4c-1.9,1.7-3.4,3.7-4.5,6c-1.1,2.3-1.7,4.8-1.7,7.4
	c0,1.9,0.3,3.7,0.9,5.5c0.6,1.7,1.5,3.3,2.5,4.7c1,1.4,2.2,2.6,3.6,3.7c1.3,1,2.7,1.9,4.2,2.6c-1.2,0.3-2.2,1-3,1.9
	c-0.6,0.7-1,1.6-1.1,2.5c0,0.9,0.2,1.9,0.8,2.6c0.7,0.9,1.7,1.6,2.9,2c-4.3,1.1-7.4,2.8-9.3,5c-1.9,2.4-3,5.3-2.9,8.4
	c0,2.1,0.5,4.3,1.6,6.1c1.1,2,2.7,3.6,4.6,4.9c2.2,1.4,4.7,2.4,7.2,3c3.1,0.8,6.3,1.1,9.5,1.1c3.1,0,6.3-0.3,9.3-1.1
	c2.5-0.6,4.9-1.7,7.1-3.1c1.9-1.2,3.4-2.9,4.5-4.8c1.1-1.8,1.6-3.9,1.6-6c0.1-4-1.8-7.8-5.1-10.1c-3.4-2.6-8.3-4.1-14.5-4.7
	c-1.4-0.1-2.8-0.4-4.1-1c-0.9-0.5-1.4-1-1.4-1.6s0.5-1.2,1.4-1.8c1.3-0.7,2.7-1.1,4.1-1.3c2.5-0.3,5-1.1,7.2-2.3
	c2.1-1.1,3.9-2.6,5.5-4.3c1.5-1.6,2.7-3.5,3.5-5.6c0.8-2,1.2-4.1,1.2-6.3c0-2.8-0.7-5.5-1.9-8c2.8,0,5.1-2.2,5.1-5c0,0,0-0.1,0-0.1
	v-4.4h-16.6C225,28.7,222.4,28.3,219.8,28.3z M220.4,80.5c2.6-0.1,5.2,0.4,7.6,1.3c1.8,0.6,3,2.3,3,4.3c0,1.9-1.1,3.6-2.9,4.3
	c-2.4,1-5.1,1.5-7.7,1.4c-2.7,0.1-5.3-0.4-7.8-1.4c-1.8-0.7-3-2.4-3-4.3c0-1.8,1.2-3.5,2.9-4.1C215,80.9,217.7,80.4,220.4,80.5z
	 M228.7,47.1c0,1.2-0.2,2.4-0.7,3.5c-0.5,1.1-1.1,2-1.9,2.8c-0.8,0.8-1.8,1.5-2.8,1.9c-1.1,0.5-2.3,0.7-3.4,0.7
	c-1.2,0-2.3-0.2-3.4-0.7c-1-0.5-2-1.1-2.8-1.9c-0.8-0.8-1.4-1.8-1.9-2.8c-0.5-1.1-0.7-2.3-0.7-3.5c0-1.2,0.2-2.3,0.7-3.4
	c0.5-1,1.1-2,1.9-2.8c0.8-0.8,1.7-1.4,2.8-1.9c1.1-0.5,2.2-0.7,3.4-0.7c1.2,0,2.4,0.2,3.4,0.7c1.1,0.5,2,1.1,2.8,1.9
	c0.8,0.8,1.4,1.8,1.9,2.8C228.5,44.8,228.7,45.9,228.7,47.1z"/>
</svg>
