<svg id="Designed" xmlns="http://www.w3.org/2000/svg" viewBox="0 0 450 110"><defs><style>.cls-1{fill:#586578;}</style></defs><title>designed-logo-bw</title><path class="cls-1" d="M63.35,22.31a30,30,0,0,0-9.56-6.88,28.6,28.6,0,0,0-12.12-2.56H15v64H41.67a29.05,29.05,0,0,0,21.68-9.4,31.66,31.66,0,0,0,6.24-10.15,35.55,35.55,0,0,0,0-24.84A31.17,31.17,0,0,0,63.35,22.31ZM57.71,53.23a20.43,20.43,0,0,1-4.2,6.87,18.85,18.85,0,0,1-6.6,4.56,22.14,22.14,0,0,1-8.76,1.64h-16a8.75,8.75,0,0,0,5.2-8V22.63h10.8a22.11,22.11,0,0,1,8.92,1.72,19.22,19.22,0,0,1,6.68,4.72,20.63,20.63,0,0,1,4.16,7,23.4,23.4,0,0,1,1.36,8.48A25.75,25.75,0,0,1,57.71,53.23Z"/><path class="cls-1" d="M121,35.26a26.27,26.27,0,0,0-8.11-5.12,25.63,25.63,0,0,0-9.58-1.84,24.69,24.69,0,0,0-9.83,2,26.1,26.1,0,0,0-8,5.32,24.56,24.56,0,0,0-5.4,7.9,24.89,24.89,0,0,0,0,19.41,24.82,24.82,0,0,0,5.36,7.9,25.43,25.43,0,0,0,8,5.33,25.16,25.16,0,0,0,10,2,32.31,32.31,0,0,0,10-1.51,33.21,33.21,0,0,0,9.62-5.2l-2.17-2.18a10.12,10.12,0,0,0-10.54-2.31l-.07,0A19.26,19.26,0,0,1,103.83,68,14,14,0,0,1,99,67.24a13.68,13.68,0,0,1-3.89-2.13,12.82,12.82,0,0,1-2.91-3.19A16.27,16.27,0,0,1,90.4,58h37.83c.11-.87.21-1.72.29-2.54s.12-1.61.12-2.37A24,24,0,0,0,121,35.26ZM90.4,48.53a14.23,14.23,0,0,1,4.91-7.25,12.59,12.59,0,0,1,7.94-2.74,12.85,12.85,0,0,1,8.07,2.74,14.19,14.19,0,0,1,5,7.25Z"/><path class="cls-1" d="M166.31,54.14a22.31,22.31,0,0,0-4.75-3.24,33.57,33.57,0,0,0-5.73-2.29,37.32,37.32,0,0,1-7.17-2.78c-1.66-.93-2.49-2-2.49-3.28a3.05,3.05,0,0,1,.65-1.92,5,5,0,0,1,1.68-1.4,9.85,9.85,0,0,1,2.21-.81,9.65,9.65,0,0,1,2.25-.29,11.54,11.54,0,0,1,5.74,1.47l.05,0a8,8,0,0,0,9.74-1.2l1.92-1.94a22.13,22.13,0,0,0-17.73-8.19,23.23,23.23,0,0,0-6.65,1,19.85,19.85,0,0,0-5.87,2.83A14.72,14.72,0,0,0,136,36.7a12.11,12.11,0,0,0-1.6,6.18,11.81,11.81,0,0,0,1.23,5.49,14.75,14.75,0,0,0,3.28,4.21,19.84,19.84,0,0,0,4.67,3.12,34.61,34.61,0,0,0,5.4,2.08,38.19,38.19,0,0,1,7.37,2.83q2.63,1.43,2.62,3.56a3.29,3.29,0,0,1-1.84,3.07,9.36,9.36,0,0,1-4.63,1,12.34,12.34,0,0,1-6-1.52l-.05,0a8.66,8.66,0,0,0-10.37,1.39l-1.61,1.63a20.66,20.66,0,0,0,8,6.43,24.39,24.39,0,0,0,10,2,23.3,23.3,0,0,0,6.48-.94,19.37,19.37,0,0,0,5.91-2.78,14.86,14.86,0,0,0,4.27-4.59,11.89,11.89,0,0,0,1.64-6.26,11.46,11.46,0,0,0-1.18-5.28A14.4,14.4,0,0,0,166.31,54.14Z"/><path class="cls-1" d="M184.16,11.47a6.31,6.31,0,1,0,6.31,6.31A6.31,6.31,0,0,0,184.16,11.47Z"/><path class="cls-1" d="M178.19,68.61a8.25,8.25,0,0,0,8.25,8.25h3.7V29.45H178.19Z"/><path class="cls-1" d="M287.55,33a16.52,16.52,0,0,0-5.89-3.52,20.89,20.89,0,0,0-6.92-1.15,18.44,18.44,0,0,0-3.4.33,21.61,21.61,0,0,0-3.44.94,20.24,20.24,0,0,0-3.23,1.52,12.59,12.59,0,0,0-2.63,2L262,29.53H250.17V65.07A11.79,11.79,0,0,0,262,76.86V42.39a13.4,13.4,0,0,1,4.77-3,15.75,15.75,0,0,1,5.35-.94,10.1,10.1,0,0,1,3.49.61,8.41,8.41,0,0,1,3,1.88,9.19,9.19,0,0,1,2.1,3.2,11.8,11.8,0,0,1,.78,4.46V65.07a11.79,11.79,0,0,0,11.8,11.79V48a23.26,23.26,0,0,0-1.56-8.93A17,17,0,0,0,287.55,33Z"/><path class="cls-1" d="M343.53,35.26a26.15,26.15,0,0,0-8.11-5.12,25.63,25.63,0,0,0-9.58-1.84,24.69,24.69,0,0,0-9.83,2,25.94,25.94,0,0,0-8,5.32,24.44,24.44,0,0,0-7.37,17.61,24.16,24.16,0,0,0,2,9.7A24.69,24.69,0,0,0,308,70.8a25.38,25.38,0,0,0,18,7.29,32.31,32.31,0,0,0,9.95-1.51,33.21,33.21,0,0,0,9.62-5.2l-2.17-2.18a10.12,10.12,0,0,0-10.54-2.31l-.06,0A19.36,19.36,0,0,1,326.33,68a14.07,14.07,0,0,1-4.79-.78,13.82,13.82,0,0,1-3.89-2.13,12.82,12.82,0,0,1-2.91-3.19A16.66,16.66,0,0,1,312.9,58h37.83c.11-.87.21-1.72.29-2.54s.12-1.61.12-2.37a23.89,23.89,0,0,0-7.61-17.86ZM312.9,48.53a14.29,14.29,0,0,1,4.91-7.25,12.6,12.6,0,0,1,7.95-2.74,12.84,12.84,0,0,1,8.06,2.74,14.19,14.19,0,0,1,5,7.25Z"/><path class="cls-1" d="M390.45,16.92V31.33A15.81,15.81,0,0,0,385.54,29a21.23,21.23,0,0,0-5.9-.82,19.65,19.65,0,0,0-8.43,1.92,24.33,24.33,0,0,0-7.29,5.29,26.05,26.05,0,0,0-5.12,7.9,25.1,25.1,0,0,0-1.92,9.87,27,27,0,0,0,1.68,9.5,24.59,24.59,0,0,0,4.7,7.9,22.62,22.62,0,0,0,7.21,5.4,20.88,20.88,0,0,0,9.17,2,19,19,0,0,0,5.74-.86,15,15,0,0,0,5-2.74,2.46,2.46,0,0,0,2.46,2.45h9.58v-68h-3.93A8,8,0,0,0,390.45,16.92Zm.09,47.25a13,13,0,0,1-14,2.46,12,12,0,0,1-4.15-3,14,14,0,0,1-2.71-4.59,16.63,16.63,0,0,1-1-5.85,17.25,17.25,0,0,1,1-6,13.4,13.4,0,0,1,2.79-4.63,12.57,12.57,0,0,1,4.23-3,13.81,13.81,0,0,1,5.39-1,12.39,12.39,0,0,1,2.05.2,17.21,17.21,0,0,1,2.3.58,14.33,14.33,0,0,1,2.22.9,15.66,15.66,0,0,1,1.9,1.1Z"/><path class="cls-1" d="M409.46,11.09h4.06V21.7h2.42V11.09H420V8.89H409.46Z"/><polygon class="cls-1" points="432.28 8.91 428.28 14.42 424.27 8.91 421.49 8.91 421.49 21.72 423.9 21.72 423.9 12.4 427.98 17.98 428.46 17.98 432.63 12.42 432.63 21.72 435.05 21.72 435.05 8.91 432.28 8.91"/><path class="cls-1" d="M219.79,28.3a21.81,21.81,0,0,0-7.94,1.46,21.57,21.57,0,0,0-6.61,4,19.54,19.54,0,0,0-4.51,6,16.65,16.65,0,0,0-1.67,7.36,16.48,16.48,0,0,0,.92,5.52,17.32,17.32,0,0,0,2.53,4.68A21.12,21.12,0,0,0,206.09,61a19.88,19.88,0,0,0,4.16,2.6,6.7,6.7,0,0,0-3,1.88A4.29,4.29,0,0,0,206.16,68a4.09,4.09,0,0,0,.79,2.63,5.82,5.82,0,0,0,2.88,2q-6.47,1.66-9.33,5a12.56,12.56,0,0,0-2.86,8.4,12,12,0,0,0,1.58,6.11A13.9,13.9,0,0,0,203.8,97a23.93,23.93,0,0,0,7.2,3,38.12,38.12,0,0,0,9.46,1.09,37.08,37.08,0,0,0,9.32-1.09,23,23,0,0,0,7.13-3.09,14.44,14.44,0,0,0,4.53-4.77,11.83,11.83,0,0,0,1.59-6A12.12,12.12,0,0,0,237.89,76q-5.14-3.86-14.51-4.68a11.05,11.05,0,0,1-4.13-1c-.92-.5-1.38-1-1.38-1.63s.46-1.17,1.38-1.75a10.84,10.84,0,0,1,4.13-1.3,21.35,21.35,0,0,0,7.23-2.34A20.53,20.53,0,0,0,236.09,59a18.6,18.6,0,0,0,3.47-5.56,16.9,16.9,0,0,0,1.21-6.31,17.44,17.44,0,0,0-1.92-8A5.1,5.1,0,0,0,244,34V29.56H227.4A22.38,22.38,0,0,0,219.79,28.3Zm.63,52.24A18.6,18.6,0,0,1,228,81.88a4.45,4.45,0,0,1,3,4.26,4.54,4.54,0,0,1-2.87,4.31,18,18,0,0,1-7.7,1.38,18.28,18.28,0,0,1-7.75-1.42,4.56,4.56,0,0,1-3-4.27A4.49,4.49,0,0,1,212.55,82,17.93,17.93,0,0,1,220.42,80.54Zm8.31-33.43a8.64,8.64,0,0,1-.7,3.47,9.28,9.28,0,0,1-1.91,2.84,8.88,8.88,0,0,1-2.81,1.92,8.34,8.34,0,0,1-3.44.71,8,8,0,0,1-3.39-.71,9.1,9.1,0,0,1-2.78-1.92,9.25,9.25,0,0,1-1.9-2.84,8.64,8.64,0,0,1-.7-3.47,8.35,8.35,0,0,1,.7-3.43,9.31,9.31,0,0,1,1.9-2.8A9.1,9.1,0,0,1,216.48,39a8.21,8.21,0,0,1,3.39-.71,8.51,8.51,0,0,1,3.44.71,8.88,8.88,0,0,1,2.81,1.92,9.34,9.34,0,0,1,1.91,2.8A8.35,8.35,0,0,1,228.73,47.11Z"/></svg>