<svg id="Layer_1" data-name="Layer 1" xmlns="http://www.w3.org/2000/svg" viewBox="0 0 125 125"><defs><style>.cls-1{fill:#ffd510;}.cls-2{fill:#ff5521;}</style></defs><title>help</title><circle class="cls-1" cx="62.5" cy="62.5" r="50"/><path class="cls-2" d="M60.46,75.94a6.08,6.08,0,0,0-6.25,5.91v.27a6.22,6.22,0,1,0,12.44,0,6.07,6.07,0,0,0-6-6.18Z"/><path class="cls-2" d="M63.1,36.65c-9.93,0-17.1,4.24-17.1,14.68h9.32c0-4,3-6.13,7.78-6.13s6.89,2,6.89,4.6c0,4.58-6.89,9.94-9.84,13a16.41,16.41,0,0,0-4.34,8.44H65a10,10,0,0,1,2.14-4.1C70.86,62.23,79,57.48,79,49.21,79,41.19,73.74,36.65,63.1,36.65Z"/></svg>