<?xml version="1.0" encoding="UTF-8"?>
<svg width="50px" height="50px" viewBox="0 0 50 50" version="1.1" xmlns="http://www.w3.org/2000/svg" xmlns:xlink="http://www.w3.org/1999/xlink">
    <!-- Generator: Sketch 45.2 (43514) - http://www.bohemiancoding.com/sketch -->
    <title>jobs</title>
    <desc>Created with Sketch.</desc>
    <defs></defs>
    <g id="Page-1" stroke="none" stroke-width="1" fill="none" fillRule="evenodd">
        <g id="jobs" fillRule="nonzero" fill="#FFFFFF">
            <path d="M6.75817006,48.7490209 L42.4444455,48.7490209 C45.0614391,48.7490209 47.2026156,46.6078443 47.2026156,43.9908508 L47.2026156,27.7535955 L47.2026156,26.3261444 L47.2026156,14.8470592 C47.2026156,12.2300656 45.0614391,10.0888891 42.4444455,10.0888891 L36.2588245,10.0888891 L36.2588245,5.33071904 C36.2588245,3.48692814 34.7718963,2 32.9281054,2 L16.2745102,2 C14.4307193,2 12.9437911,3.48692814 12.9437911,5.33071904 L12.9437911,10.0888891 L6.75817006,10.0888891 C4.14117653,10.0888891 2,12.2300656 2,14.8470592 L2,26.3261444 L2,27.7535955 L2,43.9908508 C2.05947713,46.6078443 4.14117653,48.7490209 6.75817006,48.7490209 Z M42.4444455,45.8941188 L6.75817006,45.8941188 C5.6875818,45.8941188 4.85490204,45.0614391 4.85490204,43.9908508 L4.85490204,32.0954256 C5.4496733,32.3333342 6.10392168,32.5117655 6.75817006,32.5117655 L18.6535952,32.5117655 L18.6535952,34.6529421 C18.6535952,35.9614388 19.7241835,37.0320271 21.0326803,37.0320271 L28.1699353,37.0320271 C29.4784321,37.0320271 30.5490204,35.9614388 30.5490204,34.6529421 L30.5490204,32.5117655 L42.4444455,32.5117655 C43.0986939,32.5117655 43.7529423,32.3928113 44.3477136,32.0954256 L44.3477136,43.9313737 C44.3477136,45.0019619 43.4555567,45.8941188 42.4444455,45.8941188 Z M42.4444455,13.0032683 C43.5150338,13.0032683 44.3477136,13.835948 44.3477136,14.9065363 L44.3477136,26.3856216 L44.3477136,27.7535955 C44.3477136,28.8241837 43.5150338,29.6568635 42.4444455,29.6568635 L30.5490204,29.6568635 L30.5490204,27.515687 C30.5490204,26.2071902 29.4784321,25.1366019 28.1699353,25.1366019 L21.0326803,25.1366019 C19.7241835,25.1366019 18.6535952,26.2071902 18.6535952,27.515687 L18.6535952,29.6568635 L6.75817006,29.6568635 C5.6875818,29.6568635 4.85490204,28.8241837 4.85490204,27.7535955 L4.85490204,26.3261444 L4.85490204,14.8470592 C4.85490204,13.7764709 5.6875818,12.9437911 6.75817006,12.9437911 L42.4444455,12.9437911 L42.4444455,13.0032683 Z M21.5084973,27.991504 L27.7535955,27.991504 L27.7535955,34.2366022 L21.5084973,34.2366022 L21.5084973,27.991504 Z M17.7019612,6.75817006 L31.5006544,6.75817006 L31.5006544,10.0888891 L17.7019612,10.0888891 L17.7019612,6.75817006 Z" id="Shape"></path>
        </g>
    </g>
</svg>