<?xml version="1.0" encoding="utf-8"?>
<!-- Generator: Adobe Illustrator 24.0.0, SVG Export Plug-In . SVG Version: 6.00 Build 0)  -->
<svg version="1.1" id="Layer_1" xmlns="http://www.w3.org/2000/svg" xmlns:xlink="http://www.w3.org/1999/xlink" x="0px" y="0px"
	 viewBox="0 0 875 875" style="enable-background:new 0 0 875 875;" xml:space="preserve">
<style type="text/css">
	.st0{fill:#FFFFFF;}
	.st1{fill:#FFCD1D;}
	.st2{fill:#00B5DC;}
	.st3{fill:#00D682;}
	.st4{fill:#FFCE0B;}
	.st5{fill:#FF753E;}
	.st6{fill:#932CD5;}
	.st7{fill:#FF0350;}
</style>
<g>
	<title>INSTAGRAM_Template_TWO</title>
	<path class="st0" d="M794.9,870.1H358.8V688c0-120.4,97.6-218,218-218c120.2,0,218,97.8,218,218L794.9,870.1z M405,823.9h343.8V688
		c0-94.8-77.1-171.9-171.9-171.9c-95,0-171.9,76.9-171.9,171.8c0,0.1,0,0.1,0,0.2L405,823.9L405,823.9z"/>
	<path class="st0" d="M637.6,870.1H80.1v-241c0-160,130.2-290.3,290.3-290.3h58.5V385h-58.5c-134.6,0-244.1,109.5-244.1,244.1v194.8
		h511.3V870.1z"/>
	<path class="st0" d="M403.6,384.4c-104.6,0-189.8-85.1-189.8-189.8S299,4.9,403.6,4.9S593.4,90,593.4,194.7
		c0,12.8-1.3,25.6-3.8,38.2l-45.2-9.2c1.9-9.5,2.9-19.3,2.9-29c0-79.2-64.4-143.6-143.6-143.6S260,115.4,260,194.6
		s64.4,143.6,143.6,143.6c8.5,0,17-0.8,25.4-2.2l8.1,45.4C426.1,383.4,414.9,384.4,403.6,384.4z"/>
	<path class="st1" d="M577.1,516.2c-85.4,0-154.9-69.5-154.9-155s69.5-154.9,154.9-154.9S732,275.8,732,361.2
		S662.5,516.2,577.1,516.2z M577.1,252.5c-60.1,0-108.8,48.7-108.8,108.8S517,470,577.1,470s108.8-48.7,108.8-108.8l0,0
		C685.8,301.2,637.1,252.5,577.1,252.5z"/>
</g>
<g id="XMLID_88_">
	<g id="XMLID_89_">
		<g id="XMLID_90_">
			<path id="XMLID_121_" class="st2" d="M-670.1,342.5c-29.6,49.4-83.6,82.6-145.4,82.6l0,0c-76.4,0-138.4-61.9-138.4-138.4V117.6
				L-806.3,248C-764.4,285-718.7,316.6-670.1,342.5z"/>
			<path id="XMLID_120_" class="st3" d="M-646.3,117.6V256c0,31.6-8.6,61.2-23.7,86.5c-48.7-25.8-94.4-57.4-136.2-94.5l-147.5-130.4
				C-953.7,117.6-646.3,117.6-646.3,117.6z"/>
			<path id="XMLID_94_" class="st4" d="M-338.8,425.1c-116.3,0-229.9-28.7-331.2-82.6c15.1-25.3,23.7-54.9,23.7-86.5V117.6
				c84.9,0,161.7,34.4,217.4,90C-373.3,263.3-338.8,340.2-338.8,425.1z"/>
			<path id="XMLID_93_" class="st5" d="M-670.1,572.4c-48.7,25.8-94.4,57.5-136.2,94.5l-147.5,130.4V628.2
				c0-76.4,61.9-138.4,138.4-138.4l0,0C-753.6,489.8-699.6,523-670.1,572.4z"/>
			<path id="XMLID_92_" class="st6" d="M-646.3,658.9v138.4h-307.5l147.5-130.4c41.9-37,87.6-68.7,136.2-94.5
				C-655,597.7-646.3,627.3-646.3,658.9z"/>
			<path id="XMLID_91_" class="st7" d="M-338.8,489.8c0,84.9-34.4,161.8-90,217.4c-55.7,55.6-132.5,90-217.4,90V658.9
				c0-31.6-8.6-61.2-23.7-86.5C-568.8,518.5-455.1,489.8-338.8,489.8z"/>
		</g>
	</g>
</g>
</svg>
