<?xml version="1.0" encoding="utf-8"?>
<!-- Generator: Adobe Illustrator 24.0.0, SVG Export Plug-In . SVG Version: 6.00 Build 0)  -->
<svg version="1.1" id="Layer_1" xmlns="http://www.w3.org/2000/svg" xmlns:xlink="http://www.w3.org/1999/xlink" x="0px" y="0px"
	 viewBox="0 0 930 707.2" style="enable-background:new 0 0 930 707.2;" xml:space="preserve">
<style type="text/css">
	.st0{fill:#FFFFFF;}
	.st1{fill:#F7AE1C;}
</style>
<title>INSTAGRAM_Template_TWO</title>
<g>
	<path class="st0" d="M427.5,671.8H9.5V497.2c0-115.5,93.6-209.1,209-209.1l0,0c115.2,0,209.1,93.7,209.1,209.1V671.8z M53.8,627.6
		h329.6V497.2c0-90.9-74-164.7-164.8-164.7c-91,0-164.7,73.6-164.8,164.6c0,0.1,0,0.1,0,0.2L53.8,627.6z"/>
	<path class="st0" d="M218.7,332.4c-81.8,0-148.5-66.6-148.5-148.5c0.1-82,66.5-148.5,148.5-148.5s148.6,66.6,148.6,148.5
		C367.2,266,300.8,332.4,218.7,332.4z M218.7,79.7c-57.6,0-104.3,46.6-104.3,104.3s46.6,104.3,104.3,104.3S323,241.5,323,183.9
		S276.3,79.7,218.7,79.7L218.7,79.7z"/>
	<path class="st0" d="M921.2,671.8h-418V497.2c0-115.5,93.6-209.1,209-209.1l0,0c115.2,0,209.1,93.7,209.1,209.1L921.2,671.8
		L921.2,671.8z M547.5,627.6H877V497.2c0-90.9-74-164.7-164.7-164.7c-91,0-164.7,73.6-164.8,164.6c0,0.1,0,0.1,0,0.2V627.6z"/>
	<path class="st0" d="M712.5,332.4c-82,0-148.5-66.6-148.5-148.5c0-82,66.5-148.5,148.5-148.5s148.6,66.6,148.6,148.5
		C861,266,794.5,332.4,712.5,332.4z M712.5,79.7c-57.6,0-104.2,46.6-104.2,104.3s46.6,104.3,104.2,104.3s104.3-46.6,104.3-104.3l0,0
		C816.8,126.3,770,79.7,712.5,79.7L712.5,79.7z"/>
	<path class="st1" d="M194.9,383.7H242c9.6,0,17.4,7.8,17.4,17.4v47.1c0,9.6-7.8,17.4-17.4,17.4h-47.1c-9.6,0-17.4-7.8-17.4-17.4
		v-47.1C177.7,391.5,185.3,383.7,194.9,383.7z"/>
	<path class="st1" d="M125.5,508h47.1c9.6,0,17.4,7.8,17.4,17.4v47c0,9.6-7.8,17.4-17.4,17.4h-47.1c-9.6,0-17.4-7.8-17.4-17.4v-47.1
		C108.2,515.8,115.9,508,125.5,508z"/>
	<path class="st1" d="M264.4,508h47.1c9.6,0,17.4,7.8,17.4,17.4v47c0,9.6-7.8,17.4-17.4,17.4h-47.1c-9.6,0-17.4-7.8-17.4-17.4v-47.1
		C247.1,515.8,254.8,508,264.4,508z"/>
	<path class="st1" d="M615.6,508h47.1c9.6,0,17.4,7.8,17.4,17.4v47c0,9.6-7.8,17.4-17.4,17.4h-47.1c-9.6,0-17.4-7.8-17.4-17.4v-47.1
		C598.2,515.8,606,508,615.6,508z"/>
</g>
</svg>
