<svg id="Layer_1" data-name="Layer 1" xmlns="http://www.w3.org/2000/svg" viewBox="0 0 125 125"><defs><style>.cls-1{fill:#e792ea;}.cls-2{fill:#ffd510;}.cls-3{fill:#5bce9f;}.cls-4{fill:#ff5521;}</style></defs><title>network</title><polygon class="cls-1" points="65.62 89.59 65.62 59.57 59.37 59.57 59.37 89.59 37.5 89.59 37.5 95.84 87.5 95.84 87.5 89.59 65.62 89.59"/><circle class="cls-2" cx="32.5" cy="73.34" r="10.63"/><path class="cls-2" d="M32.5,83.43a25.2,25.2,0,0,0-14,3.91c-3.63,2.44-6,5.94-6,9.84v10.11h40V97.18c0-3.9-2.41-7.4-6-9.84A25.2,25.2,0,0,0,32.5,83.43Z"/><circle class="cls-3" cx="92.5" cy="73.34" r="10.63"/><path class="cls-3" d="M92.5,83.43a25.2,25.2,0,0,0-14,3.91c-3.63,2.44-6,5.94-6,9.84v10.11h40V97.18c0-3.9-2.41-7.4-6-9.84A25.2,25.2,0,0,0,92.5,83.43Z"/><circle class="cls-4" cx="62.5" cy="28.34" r="10.63"/><path class="cls-4" d="M62.5,38.43a25.2,25.2,0,0,0-14,3.91c-3.63,2.44-6,5.94-6,9.84V62.29h40V52.18c0-3.9-2.41-7.4-6-9.84A25.2,25.2,0,0,0,62.5,38.43Z"/></svg>