<?xml version="1.0" encoding="utf-8"?>
<!-- Generator: Adobe Illustrator 24.0.0, SVG Export Plug-In . SVG Version: 6.00 Build 0)  -->
<svg version="1.1" id="Capa_1" xmlns="http://www.w3.org/2000/svg" xmlns:xlink="http://www.w3.org/1999/xlink" x="0px" y="0px"
	 viewBox="0 0 542 542" style="enable-background:new 0 0 542 542;" xml:space="preserve">
<style type="text/css">
	.st0{fill:#FFFFFF;}
	.st1{fill:none;stroke:#FFCD1D;stroke-width:31;stroke-miterlimit:10;}
</style>
<path class="st0" d="M278,198h-15v60h15h15v-60H278z"/>
<path class="st0" d="M278,198h15v60h-15V198z"/>
<path class="st0" d="M297.8,399.1l44.4-48L319.4,333L278,377.8l0,0L236.6,333l-22.8,18.1l44.4,48L146.6,521.7l22.8,18.1L278,420.5
	l108.6,119.3l22.8-18.1L297.8,399.1z"/>
<path class="st0" d="M409.4,521.7L297.8,399.1l44.4-48L319.4,333L278,377.8v42.7l108.6,119.3L409.4,521.7z"/>
<path class="st0" d="M318.8,243H278h-40.8l-98.4,297.3l28.4,9.5L258.8,273H278h19.2l89.5,270.4l28.4-9.5L318.8,243z"/>
<path class="st0" d="M386.7,543.4l28.4-9.5L318.8,243H278v30h19.2L386.7,543.4z"/>
<path class="st0" d="M278,512H83v30h195h195v-30H278z"/>
<path class="st0" d="M278,512h195v30H278V512z"/>
<g>
	<g>
		<g>
			<path class="st0" d="M97.8,280.1C60.6,242.9,41.8,192,41.2,140.8C40.7,88.1,59.5,39.5,97.8,1.2l24.7,24.7
				c-31.1,31.1-46.3,71-45.8,115c0.5,42.4,15.8,84.6,45.8,114.6L97.8,280.1z"/>
			<path class="st0" d="M444.2,280.1l-24.7-24.7c30-30,45.2-72.2,45.8-114.6c0.6-44-14.7-83.9-45.8-115l24.7-24.7
				c38.3,38.3,57.2,87,56.6,139.7C500.2,192,481.4,242.9,444.2,280.1z"/>
		</g>
		<path class="st0" d="M150,231.8c-22.2-22.2-34.9-54.2-34.9-87.9s12.7-66,34.9-88.2l24.1,24.1c-15.8,15.8-24.9,39.4-24.9,64.1
			s9.1,47.9,24.9,63.7L150,231.8z"/>
		<path class="st0" d="M392,231.8l-24.1-24.1c15.8-15.8,24.9-39.1,24.9-63.7s-9.1-48.3-24.9-64.1L392,55.8
			c22.2,22.2,34.9,54.6,34.9,88.2S414.2,209.6,392,231.8L392,231.8z"/>
	</g>
	<circle class="st1" cx="271" cy="137.3" r="64.5"/>
</g>
</svg>
