<svg id="Layer_1" data-name="Layer 1" xmlns="http://www.w3.org/2000/svg" viewBox="0 0 125 125"><defs><style>.cls-1{fill:#ffd510;}.cls-2{fill:#e792ea;}.cls-3{fill:#ff5521;}</style></defs><title>podcast</title><circle class="cls-1" cx="62.5" cy="62.44" r="50"/><ellipse class="cls-2" cx="62.5" cy="62.44" rx="29.62" ry="30"/><path class="cls-3" d="M62.5,102.44a40,40,0,1,1,40-40A40,40,0,0,1,62.5,102.44Zm0-70a30,30,0,1,0,30,30A30,30,0,0,0,62.5,32.44Z"/><circle class="cls-3" cx="62.5" cy="63.85" r="12.36"/><path class="cls-3" d="M62.5,80.81c-9.55,0-17.29,6.53-17.29,14.58V109.5a50.21,50.21,0,0,0,34.52,0V95.43C79.8,87.34,72.05,80.81,62.5,80.81Z"/></svg>