<svg id="Layer_1" data-name="Layer 1" xmlns="http://www.w3.org/2000/svg" viewBox="0 0 125 125"><defs><style>.cls-1{fill:#ff5521;}.cls-2{fill:#5bce9f;}.cls-3{fill:#ffd510;}</style></defs><title>updates</title><path class="cls-1" d="M62.5,24.9h0a30,30,0,0,1,30,30V89.35h-60V54.9A30,30,0,0,1,62.5,24.9Z"/><path class="cls-2" d="M40.27,22.78l-7.15-7.16A52.15,52.15,0,0,0,12.51,54.9h10A42.21,42.21,0,0,1,40.27,22.78Z"/><path class="cls-2" d="M102.49,54.9h10A52.48,52.48,0,0,0,91.87,15.62l-7.1,7.16A42.48,42.48,0,0,1,102.49,54.9Z"/><path class="cls-3" d="M76.29,95.21A13.8,13.8,0,0,1,48.71,96v-.75Z"/></svg>