<?xml version="1.0" encoding="UTF-8"?>
<svg width="264px" height="105px" viewBox="0 0 264 105" version="1.1" xmlns="http://www.w3.org/2000/svg" xmlns:xlink="http://www.w3.org/1999/xlink">
    <!-- Generator: Sketch 48.2 (47327) - http://www.bohemiancoding.com/sketch -->
    <title>Artboard</title>
    <desc>Created with Sketch.</desc>
    <defs>
        <polygon id="path-1" points="0.06 0.999 72 0.999 72 72.94 0.06 72.94"></polygon>
    </defs>
    <g id="Page-1" stroke="none" stroke-width="1" fill="none" fillRule="evenodd">
        <g id="Artboard">
            <g id="ably_logo_rbg" transform="translate(5.000000, 2.000000)">
                <g id="Group-3" transform="translate(0.000000, 29.000000)">
                    <mask id="mask-2" fill="white">
                        <use xlink:href="#path-1"></use>
                    </mask>
                    <g id="Clip-2"></g>
                    <path d="M36,53 C27.179,53 20,45.82 20,37 C20,28.177 27.179,20.999 36,20.999 C44.822,20.999 52,28.177 52,37 C52,45.82 44.822,53 36,53 Z M36,0.999 C16.118,0.999 0,17.117 0,37 C0,56.88 16.118,73 36,73 C55.882,73 72,56.88 72,37 C72,17.117 55.882,0.999 36,0.999 Z" id="Fill-1" fill="#ED760A" mask="url(#mask-2)"></path>
                </g>
                <path d="M22.062,27.271 C21.714,27.387 21.17,27.545 20.618,27.545 C18.985,27.544 17.581,26.566 16.959,25.163 L16.958,25.163 L10.553,11.427 L10.623,11.579 C10.354,11.04 10.202,10.433 10.202,9.79 C10.202,8.273 11.082,6.906 12.416,6.211 C19.483,2.562 27.499,0.499 36,0.499 C64.443,0.499 87.5,23.556 87.5,51.998 C87.5,67.138 80.967,80.753 70.565,90.177 L70.561,90.183 C70.441,90.281 70.345,90.33 70.207,90.33 C69.931,90.33 69.707,90.105 69.707,89.83 C69.707,89.695 69.738,89.578 69.802,89.469 C74.436,82.812 77.156,74.725 77.156,66 C77.156,43.27 58.729,24.843 36,24.843 C31.106,24.842 26.415,25.701 22.062,27.271" id="Fill-4" fill="#F9A01B"></path>
                <path d="M130.216,57.523 C130.216,59.422 131.641,60.576 134.692,60.576 C135.71,60.576 136.592,60.44 137.271,60.304 L137.271,55.896 C136.185,55.082 134.761,54.878 133.676,54.878 C131.302,54.878 130.216,55.828 130.216,57.252 L130.216,57.523 Z M137.271,47.146 L137.271,46.4 C137.271,44.229 136.456,42.602 130.081,42.602 C126.893,42.602 124.315,43.009 123.162,43.212 C119.636,43.755 118.89,42.805 118.279,39.414 L118.144,38.668 C118.008,37.786 117.872,37.04 117.872,36.43 C117.872,34.395 118.89,33.717 121.941,33.106 C125.062,32.496 130.895,32.293 134.15,32.293 C146.766,32.293 150.699,35.344 150.835,45.925 L150.835,62.339 C150.835,66.07 150.157,67.154 146.155,68.171 C144.866,68.511 139.848,69.596 133.743,69.596 C124.654,69.596 115.973,67.154 115.973,58.269 L115.973,56.505 C115.973,49.588 120.856,45.857 129.131,45.857 C132.048,45.857 134.422,46.332 137.271,47.146 Z" id="Fill-5" fill="#1E1E1E"></path>
                <path d="M179.305,49.791 C179.305,45.654 177.541,43.348 173.742,43.348 C172.454,43.348 170.826,43.619 169.537,44.365 L169.537,58.88 C170.69,59.152 171.64,59.218 172.251,59.218 C176.116,59.218 179.305,56.574 179.305,50.741 L179.305,49.791 Z M193.548,49.045 L193.548,50.13 C193.548,65.391 183.306,69.596 172.251,69.596 C167.57,69.596 162.416,68.85 159.974,68.171 C157.465,67.425 155.973,66.137 155.973,63.017 L155.973,22.458 C155.973,19.609 157.193,18.388 160.042,18.388 L165.468,18.388 C168.316,18.388 169.537,19.609 169.537,22.458 L169.537,34.938 C173.403,32.835 176.456,32.293 179.169,32.293 C188.122,32.293 193.548,38.329 193.548,49.045 Z" id="Fill-6" fill="#1E1E1E"></path>
                <path d="M215.811,63.966 C215.946,67.29 215.133,67.968 212.283,68.511 C211.198,68.714 209.57,68.918 207.942,68.918 C201.635,68.918 197.973,66.07 197.973,56.235 L197.973,23.136 C197.973,19.813 199.396,18.388 202.721,18.388 L206.79,18.388 C210.113,18.388 211.537,19.813 211.537,23.136 L211.537,56.168 C211.537,58.066 211.741,58.541 212.759,58.541 L213.369,58.541 C215.2,58.541 215.675,60.236 215.743,62.339 L215.811,63.966" id="Fill-7" fill="#1E1E1E"></path>
                <path d="M235.819,57.468 C238.397,52.043 240.364,45.667 240.364,38.545 L240.364,37.731 C240.364,34.408 241.788,32.984 245.112,32.984 L248.503,32.984 C251.826,32.984 253.251,34.408 253.251,37.731 L253.251,38.613 C253.251,56.791 244.705,66.964 232.157,82.496 C231.411,83.513 230.529,84.125 229.444,84.125 C228.359,84.125 227.545,83.65 226.46,82.767 L224.086,80.869 C222.458,79.58 221.78,78.427 221.78,77.41 C221.78,76.664 222.119,75.986 222.797,75.306 C224.425,73.611 226.731,71.169 228.63,68.796 C225.511,64.591 218.592,49.533 216.354,37.461 C215.743,34.205 216.286,32.984 220.627,32.984 L225.917,32.984 C229.512,32.984 229.986,35.629 230.326,37.664 C231.75,45.871 235.073,55.841 235.073,55.773 L235.819,57.468" id="Fill-8" fill="#1E1E1E"></path>
            </g>
        </g>
    </g>
</svg>