<?xml version="1.0" encoding="UTF-8"?>
<svg width="160px" height="34px" viewBox="0 0 160 34" version="1.1" xmlns="http://www.w3.org/2000/svg" xmlns:xlink="http://www.w3.org/1999/xlink">
    <!-- Generator: Sketch 46.2 (44496) - http://www.bohemiancoding.com/sketch -->
    <title>Amplitude Logo</title>
    <desc>Created with Sketch.</desc>
    <defs>
        <polygon id="path-1" points="3.43347639e-05 0.0559656652 33.3347124 0.0559656652 33.3347124 33.3905408 3.43347639e-05 33.3905408 3.43347639e-05 0.0559656652"></polygon>
        <polygon id="path-3" points="0 33.4204292 159.963691 33.4204292 159.963691 0.0858369099 0 0.0858369099"></polygon>
    </defs>
    <g id="Random-Assignments" stroke="none" stroke-width="1" fill="none" fillRule="evenodd">
        <g id="Amplitude-Logo" transform="translate(-20.000000, -20.000000)">
            <rect id="Container" x="0" y="0" width="200" height="74"></rect>
            <g transform="translate(20.000000, 20.000000)">
                <path d="M14.6913991,7.5887382 C14.9231588,7.94822318 15.3237597,8.75534764 15.9166352,10.5579227 C16.3222146,11.7912275 16.7647897,13.3189528 17.2329442,15.1015279 C15.4568927,15.0742318 13.6598112,15.0537167 11.9198112,15.0341459 L11.0386094,15.024103 C12.0340601,11.1324292 13.2484807,8.17946781 14.1360343,7.48221459 C14.1927725,7.44581974 14.2807554,7.40281545 14.3771502,7.40281545 C14.4937167,7.40281545 14.598867,7.46676395 14.6913991,7.5887382 Z" id="Fill-1" fill="#00A6CE"></path>
                <g id="Logomark" transform="translate(0.000000, 0.029871)">
                    <mask id="mask-2" fill="white">
                        <use xlink:href="#path-1"></use>
                    </mask>
                    <g id="Clip-4"></g>
                    <path d="M28.6520515,17.0259914 C28.6508498,17.0270215 28.6496481,17.0279657 28.6483605,17.0290815 C28.6304206,17.043588 28.6119657,17.0573219 28.5929957,17.0704549 C28.5868155,17.0747468 28.580721,17.0790386 28.5745408,17.0832446 C28.5617511,17.091485 28.548618,17.0992961 28.5353991,17.1069356 C28.523382,17.1140601 28.5114506,17.1211845 28.4990901,17.127794 C28.4984034,17.1281373 28.4976309,17.1283948 28.4969442,17.1287382 C28.3741974,17.1931159 28.2347124,17.2299399 28.0864721,17.2299399 L20.1915365,17.2299399 C20.2547124,17.4915708 20.3236395,17.7887382 20.3985751,18.1123433 C20.831279,19.9806695 21.9806352,24.9439313 23.2017511,24.9439313 L23.2256137,24.9445322 L23.2389185,24.9426438 L23.2622661,24.9427296 C24.2160858,24.9426438 24.7029528,23.5636738 25.7699056,20.5424721 L25.7827811,20.5059056 C25.9541974,20.0207554 26.1476738,19.4732017 26.3569442,18.8939742 L26.4102489,18.7462489 L26.4111931,18.7465923 C26.4656137,18.6021288 26.6047554,18.4992103 26.7683605,18.4992103 C26.9793476,18.4992103 27.1503348,18.6701974 27.1503348,18.8811845 C27.1503348,18.9194678 27.1445837,18.9563777 27.1340258,18.9912275 L27.1341974,18.9913133 L27.0898197,19.1397253 C26.9784034,19.4994678 26.8602918,19.9891674 26.7234678,20.5561202 C26.087588,23.1913991 25.1269013,27.1726867 22.6621803,27.1726867 L22.6442403,27.1726009 C21.0516223,27.1599828 20.0987468,24.6140601 19.691794,23.5268498 C18.9306781,21.4939742 18.3548841,19.3278798 17.7996052,17.2299399 L10.5322232,17.2299399 L9.02363948,22.0584378 L9.00149356,22.0410129 C8.86355365,22.2580944 8.6215794,22.3971502 8.35454077,22.3971502 C7.93333906,22.3971502 7.58896137,22.0544034 7.58707296,21.6332017 L7.58801717,21.6070215 L7.67934764,21.060927 C7.88775966,19.8202403 8.13745923,18.5322575 8.42218026,17.2299399 L5.35316738,17.2299399 L5.34183691,17.2182661 C4.78475536,17.1380086 4.35694421,16.6467639 4.35694421,16.0738026 C4.35694421,15.512 4.75454077,15.0338026 5.30235193,14.9366352 C5.3527382,14.9301974 5.45411159,14.9215279 5.66140773,14.9215279 C5.70578541,14.9215279 5.75539914,14.9218712 5.81050644,14.9228155 C6.78338197,14.9396395 7.81514163,14.9550901 8.9471588,14.9695107 C10.5492189,8.46075536 12.4044979,5.15672103 14.4624378,5.14736481 C16.6709356,5.14736481 18.3090472,10.1758627 19.6202918,15.0946609 L19.6255279,15.1142318 C22.3197768,15.1681373 25.1917082,15.2466781 27.9832103,15.4465923 L28.100206,15.4574936 C28.1451845,15.4581803 28.1889614,15.4626438 28.2320515,15.4697682 L28.2483605,15.4713133 C28.2532532,15.4720858 28.2578026,15.4735451 28.2626094,15.4744034 C28.2650129,15.4749185 28.2675021,15.4755193 28.2699056,15.4760343 C28.6762575,15.5574077 28.9778026,15.9140601 28.9778026,16.3420429 C28.9778026,16.6161202 28.8508498,16.863073 28.6520515,17.0259914 M16.6673305,0.0559484979 C7.46226609,0.0559484979 3.43347639e-05,7.51818026 3.43347639e-05,16.7232446 C3.43347639e-05,25.928309 7.46226609,33.3905408 16.6673305,33.3905408 C25.8723948,33.3905408 33.3347124,25.928309 33.3347124,16.7232446 C33.3347124,7.51818026 25.8723948,0.0559484979 16.6673305,0.0559484979" id="Fill-3" fill="#00A6CE" mask="url(#mask-2)"></path>
                </g>
                <path d="M46.3979056,11.4509356 L43.9052017,17.6578884 L48.9405665,17.6578884 L46.3979056,11.4509356 Z M42.584,20.923382 L41.2628841,24.1888755 L37.424,24.1888755 L44.7277768,7.13848927 L48.1179056,7.13848927 L55.3967039,24.1888755 L51.5827983,24.1888755 L50.2617682,20.923382 L42.584,20.923382 Z" id="Fill-6" fill="#00A6CE"></path>
                <path d="M77.033133,17.6329528 L77.033133,24.1888326 L73.5683262,24.1888326 L73.5683262,17.9320944 C73.5683262,16.037588 72.6460086,15.0155279 71.0257511,15.0155279 C70.3028326,15.0155279 69.5051502,15.3396481 68.7822318,16.3367296 C68.832103,16.7604206 68.8819742,17.1841974 68.8819742,17.6329528 L68.8819742,24.1888326 L65.4170815,24.1888326 L65.4170815,17.9320944 C65.4170815,16.037588 64.4947639,15.0155279 62.8495279,15.0155279 C62.1764807,15.0155279 61.4286695,15.414412 60.7306438,16.3616223 L60.7306438,24.1888326 L57.2657511,24.1888326 L57.2657511,12.2485751 L60.7306438,12.2485751 L60.7306438,12.9714936 C61.4784549,12.2735536 62.2761373,11.8747554 63.672103,11.8747554 C65.1927039,11.8747554 66.5387124,12.4729528 67.4860086,13.5697768 C68.7573391,12.3981888 69.9538197,11.8747554 71.8234335,11.8747554 C74.7399142,11.8747554 77.033133,14.1430815 77.033133,17.6329528" id="Fill-8" fill="#00A6CE"></path>
                <path d="M88.8481202,18.2312189 C88.8481202,16.4613476 87.5518112,14.9158541 85.7570472,14.9158541 C84.735073,14.9158541 83.7130987,15.264867 82.940309,16.3118197 L82.940309,20.1257253 C83.7130987,21.1476996 84.735073,21.4967124 85.7570472,21.4967124 C87.5518112,21.4967124 88.8481202,19.9761116 88.8481202,18.2312189 M92.2631416,18.2312189 C92.2631416,21.6961116 89.620824,24.4381717 86.3304378,24.4381717 C84.9843433,24.4381717 83.8626266,24.0891588 82.940309,23.4908755 L82.940309,29.9470987 L79.4754163,29.9470987 L79.4754163,12.2486438 L82.940309,12.2486438 L82.940309,12.9465837 C83.8626266,12.3483004 84.9843433,11.9992876 86.3304378,11.9992876 C89.620824,11.9992876 92.2631416,14.7164549 92.2631416,18.2312189" id="Fill-10" fill="#00A6CE"></path>
                <mask id="mask-4" fill="white">
                    <use xlink:href="#path-3"></use>
                </mask>
                <g id="Clip-13"></g>
                <polygon id="Fill-12" fill="#00A6CE" mask="url(#mask-4)" points="94.2070386 24.1888412 97.6718455 24.1888412 97.6718455 6.49038627 94.2070386 6.49038627"></polygon>
                <path d="M101.161373,24.1888412 L104.626266,24.1888412 L104.626266,12.2485837 L101.161373,12.2485837 L101.161373,24.1888412 Z M100.787382,8.03587983 C100.787382,6.86429185 101.7097,5.99175966 102.881373,5.99175966 C104.027983,5.99175966 104.9503,6.86429185 104.9503,8.03587983 C104.9503,9.18248927 104.027983,10.0300429 102.881373,10.0300429 C101.7097,10.0300429 100.787382,9.18248927 100.787382,8.03587983 L100.787382,8.03587983 Z" id="Fill-14" fill="#00A6CE" mask="url(#mask-4)"></path>
                <path d="M117.214369,24.0143948 C115.768704,24.4630644 115.120549,24.5628069 113.998833,24.5628069 C111.10733,24.5628069 109.212738,22.5187725 109.212738,19.4276996 L109.212738,15.1651245 L106.695056,15.1651245 L106.695056,12.2486438 L109.212738,12.2486438 L109.212738,7.98598283 L112.652738,7.98598283 L112.652738,12.2486438 L116.965185,12.2486438 L116.965185,15.1651245 L112.652738,15.1651245 L112.652738,19.4028069 C112.652738,20.7489013 113.475313,21.3720773 114.746644,21.3720773 C115.394798,21.3720773 116.092738,21.2225494 116.7657,21.0480429 L117.214369,24.0143948 Z" id="Fill-15" fill="#00A6CE" mask="url(#mask-4)"></path>
                <path d="M131.123468,24.1888755 L127.658489,24.1888755 L127.658489,23.3413219 C126.686386,24.1141116 125.589476,24.5627811 124.243468,24.5627811 C121.102609,24.5627811 119.008618,22.2943691 119.008618,18.8294764 L119.008618,12.248618 L122.473597,12.248618 L122.473597,18.5054421 C122.473597,20.3998627 123.420893,21.4219227 125.04115,21.4219227 C125.913597,21.4219227 126.860807,20.8984893 127.658489,19.9263004 L127.658489,12.248618 L131.123468,12.248618 L131.123468,24.1888755 Z" id="Fill-16" fill="#00A6CE" mask="url(#mask-4)"></path>
                <path d="M142.365339,20.1257082 L142.365339,16.3118026 C141.592549,15.2897425 140.570575,14.9408155 139.548515,14.9408155 C137.728773,14.9408155 136.457528,16.4614163 136.457528,18.206309 C136.457528,19.9760944 137.728773,21.5216738 139.548515,21.5216738 C140.570575,21.5216738 141.592549,21.1726609 142.365339,20.1257082 L142.365339,20.1257082 Z M145.830232,24.1888841 L142.365339,24.1888841 L142.365339,23.4909442 C141.443021,24.0891416 140.321305,24.4381545 138.97521,24.4381545 C135.684824,24.4381545 133.017614,21.721073 133.017614,18.206309 C133.017614,14.7413305 135.684824,11.9993562 138.97521,11.9993562 C140.321305,11.9993562 141.443021,12.3483691 142.365339,12.9465665 L142.365339,6.49034335 L145.830232,6.49034335 L145.830232,24.1888841 Z" id="Fill-17" fill="#00A6CE" mask="url(#mask-4)"></path>
                <path d="M151.114498,17.0596309 L156.523768,17.0596309 C156.324283,15.5639227 155.426944,14.7413476 154.030979,14.7413476 C152.36085,14.7413476 151.438532,15.7135365 151.114498,17.0596309 M159.888918,19.1036652 L151.089519,19.1036652 C151.363682,20.4996309 152.286,21.5964549 154.180592,21.5964549 C155.152695,21.5964549 155.825828,21.2973133 156.199648,20.69903 L159.814155,20.69903 C159.166,22.9923348 156.922481,24.5628069 154.105828,24.5628069 C150.266944,24.5628069 147.674498,21.7958541 147.674498,18.2312189 C147.674498,14.5419485 150.242052,11.8747382 154.006086,11.8747382 C157.421107,11.8747382 159.963682,14.2926781 159.963682,17.9819485 C159.963682,18.4804893 159.938704,18.7546524 159.888918,19.1036652" id="Fill-18" fill="#00A6CE" mask="url(#mask-4)"></path>
            </g>
        </g>
    </g>
</svg>